<svg width="486" height="576" viewBox="0 0 486 576" fill="none" xmlns="http://www.w3.org/2000/svg">
    <g id="person">
        <path id="head" d="M384.248 141.439C384.248 63.33 320.985 0 242.808 0C164.699 0 101.369 63.33 101.369 141.439C101.369 219.549 164.699 282.878 242.808 282.878C320.988 282.878 384.248 219.549 384.248 141.439ZM136.727 144.499C136.727 144.499 132.648 104.379 161.547 73.779C181.887 94.168 242.808 144.499 348.889 144.499C348.889 202.997 301.303 250.58 242.808 250.58C184.313 250.58 136.727 202.994 136.727 144.499Z" fill="black"/>
        <path id="body" d="M0.0490112 391.68V454.239V535.158C0.0490112 557.523 18.185 575.617 40.508 575.617H445.108C467.473 575.617 485.567 557.52 485.567 535.158V454.239V391.68C485.567 346.992 449.374 310.761 404.648 310.761H332.91C327.84 310.761 321.45 314.183 318.639 318.4L247.904 418.382C245.092 422.602 240.532 422.602 237.72 418.382L166.982 318.396C164.17 314.176 157.78 310.758 152.71 310.758H80.968C36.319 310.758 0.0490112 346.991 0.0490112 391.68Z" fill="black"/>
    </g>
</svg>
